<?xml version="1.0" encoding="UTF-8" standalone="no"?>
<svg width="100px" height="33px" viewBox="0 0 100 33" version="1.1" xmlns="http://www.w3.org/2000/svg" xmlns:xlink="http://www.w3.org/1999/xlink">
    <!-- Generator: Sketch 3.8.3 (29802) - http://www.bohemiancoding.com/sketch -->
    <title>Logo-01 (2)</title>
    <desc>Created with Sketch.</desc>
    <defs>
        <radialGradient cx="50.0907407%" cy="49.9240741%" fx="50.0907407%" fy="49.9240741%" r="50.1188272%" id="radialGradient-1">
            <stop stop-color="#797979" offset="0%"></stop>
            <stop stop-color="#4C4C4C" offset="100%"></stop>
        </radialGradient>
    </defs>
    <g id="Page-1" stroke="none" stroke-width="1" fill="none" fill-rule="evenodd">
        <g id="Logo-01-(2)">
            <g id="Group">
                <rect id="Rectangle-path" fill="#FFFFFF" x="0.179282869" y="0.179282869" width="99.7609562" height="32.7689243"></rect>
                <g transform="translate(7.370518, 7.370518)" id="Oval">
                    <ellipse fill="#F5BB60" cx="9.18326693" cy="9.18326693" rx="9.18326693" ry="9.18326693"></ellipse>
                    <ellipse fill="#E86F32" cx="8.26693227" cy="8.26693227" rx="8.26693227" ry="8.26693227"></ellipse>
                    <ellipse fill="#E53D42" cx="9.3625498" cy="7.17131474" rx="7.17131474" ry="7.17131474"></ellipse>
                    <ellipse fill="#BFD141" cx="9.94023904" cy="7.72908367" rx="6.5936255" ry="6.5936255"></ellipse>
                    <ellipse fill="#6DB64C" cx="9.46215139" cy="8.22709163" rx="6.11553785" ry="6.11553785"></ellipse>
                    <circle fill="#AFDBE7" cx="8.48605578" cy="7.25099602" r="5.13944223"></circle>
                    <ellipse fill="#57BADF" cx="9.32270916" cy="6.41434263" rx="4.30278884" ry="4.30278884"></ellipse>
                    <ellipse fill="#02B2D6" cx="9.86055777" cy="6.93227092" rx="3.78486056" ry="3.78486056"></ellipse>
                    <ellipse fill="url(#radialGradient-1)" cx="9.30278884" cy="7.49003984" rx="3.22709163" ry="3.22709163"></ellipse>
                    <ellipse fill="#231F20" cx="9.30278884" cy="7.49003984" rx="3.22709163" ry="3.22709163"></ellipse>
                    <ellipse fill="#FFFFFF" transform="translate(10.595657, 6.313896) rotate(24.166094) translate(-10.595657, -6.313896) " cx="10.5956574" cy="6.31389641" rx="0.637476372" ry="0.996056832"></ellipse>
                </g>
                <path d="M28.7051793,13.0478088 C28.7051793,12.9880478 28.7450199,12.9482072 28.8247012,12.9482072 L31.7131474,12.9482072 C33.3665339,12.9482072 34.1434263,13.7051793 34.1434263,14.8605578 C34.1434263,15.6772908 33.7250996,16.1354582 33.247012,16.374502 L33.247012,16.3944223 C33.7250996,16.5537849 34.2828685,17.1314741 34.2828685,18.0079681 C34.2828685,19.4422311 33.3067729,20.1195219 31.6135458,20.1195219 L28.8247012,20.1195219 C28.7649402,20.1195219 28.7051793,20.0796813 28.7051793,20.0199203 L28.7051793,13.0478088 L28.7051793,13.0478088 Z M31.6733068,15.936255 C32.3505976,15.936255 32.7888446,15.5577689 32.7888446,15 C32.7888446,14.4223108 32.3705179,14.0438247 31.6733068,14.0438247 L30.1195219,14.0438247 C30.0796813,14.0438247 30.059761,14.063745 30.059761,14.1035857 L30.059761,15.876494 C30.059761,15.9163347 30.0796813,15.936255 30.1195219,15.936255 L31.6733068,15.936255 L31.6733068,15.936255 Z M30.1195219,19.0239044 L31.752988,19.0239044 C32.5099602,19.0239044 32.9282869,18.625498 32.9282869,18.0278884 C32.9282869,17.4302789 32.5099602,17.0318725 31.752988,17.0318725 L30.1195219,17.0318725 C30.0796813,17.0318725 30.059761,17.0517928 30.059761,17.0916335 L30.059761,18.9641434 C30.059761,19.0039841 30.0796813,19.0239044 30.1195219,19.0239044 L30.1195219,19.0239044 Z" id="Shape" fill="#382F27"></path>
                <path d="M35.2191235,20.1394422 C35.1593625,20.1394422 35.0996016,20.0996016 35.0996016,20.0398406 L35.0996016,15.1394422 C35.0996016,15.0796813 35.1394422,15.0398406 35.2191235,15.0398406 L36.2749004,15.0398406 C36.3346614,15.0398406 36.3944223,15.0796813 36.3944223,15.1394422 L36.3944223,15.5776892 L36.4143426,15.5776892 C36.6733068,15.1792829 37.1513944,14.9203187 37.8486056,14.9203187 C38.2868526,14.9203187 38.7250996,15.0796813 39.0039841,15.3386454 C39.063745,15.3984064 39.063745,15.438247 39.0239044,15.4780876 L38.4262948,16.1952191 C38.3864542,16.2549801 38.3266932,16.2549801 38.2669323,16.2151394 C38.0079681,16.0756972 37.749004,15.9760956 37.4501992,15.9760956 C36.7330677,15.9760956 36.4143426,16.4541833 36.4143426,17.2709163 L36.4143426,20.0398406 C36.4143426,20.0996016 36.374502,20.1394422 36.2948207,20.1394422 L35.2191235,20.1394422 L35.2191235,20.1394422 Z" id="Shape" fill="#382F27"></path>
                <path d="M39.2231076,18.8446215 C39.1035857,18.4860558 39.0438247,18.1474104 39.0438247,17.5896414 C39.0438247,17.0318725 39.1035857,16.6932271 39.2231076,16.3346614 C39.5418327,15.438247 40.3784861,14.9203187 41.4940239,14.9203187 C42.6095618,14.9203187 43.4462151,15.438247 43.7649402,16.3346614 C43.8844622,16.6932271 43.9442231,17.0318725 43.9442231,17.5896414 C43.9442231,18.1474104 43.8844622,18.4860558 43.7649402,18.8446215 C43.4462151,19.7410359 42.6095618,20.2589641 41.4940239,20.2589641 C40.3784861,20.2390438 39.5418327,19.7211155 39.2231076,18.8446215 L39.2231076,18.8446215 Z M42.5298805,18.5258964 C42.6294821,18.2669323 42.6494024,18.0278884 42.6494024,17.5896414 C42.6494024,17.1513944 42.6294821,16.9322709 42.5298805,16.6533865 C42.3705179,16.2350598 42.0119522,15.9960159 41.4940239,15.9960159 C40.9760956,15.9960159 40.6175299,16.2350598 40.4581673,16.6533865 C40.3585657,16.9322709 40.3386454,17.1513944 40.3386454,17.5896414 C40.3386454,18.0278884 40.3585657,18.2669323 40.4581673,18.5258964 C40.6175299,18.9442231 40.9760956,19.1832669 41.4940239,19.1832669 C42.0119522,19.1832669 42.3705179,18.9442231 42.5298805,18.5258964 L42.5298805,18.5258964 Z" id="Shape" fill="#382F27"></path>
                <path d="M49.501992,20.1394422 C49.4422311,20.1394422 49.3824701,20.0996016 49.3625498,20.0398406 L48.3067729,16.7729084 L48.2868526,16.7729084 L47.2111554,20.0398406 C47.1912351,20.0996016 47.1513944,20.1394422 47.0717131,20.1394422 L46.1354582,20.1394422 C46.0756972,20.1394422 46.0159363,20.0996016 45.9960159,20.0398406 L44.2430279,15.1394422 C44.2231076,15.0796813 44.2629482,15.0398406 44.3227092,15.0398406 L45.4183267,15.0398406 C45.498008,15.0398406 45.5378486,15.0796813 45.5577689,15.1394422 L46.6135458,18.5059761 L46.6334661,18.5059761 L47.689243,15.1394422 C47.7091633,15.0796813 47.7689243,15.0398406 47.8286853,15.0398406 L48.6454183,15.0398406 C48.7051793,15.0398406 48.7649402,15.0796813 48.7848606,15.1394422 L49.9003984,18.5059761 L49.9203187,18.5059761 L50.936255,15.1394422 C50.9561753,15.059761 50.9960159,15.0398406 51.0756972,15.0398406 L52.1713147,15.0398406 C52.2310757,15.0398406 52.2709163,15.0796813 52.250996,15.1394422 L50.5179283,20.0199203 C50.498008,20.0796813 50.4581673,20.1195219 50.3784861,20.1195219 L49.501992,20.1195219 L49.501992,20.1394422 Z" id="Shape" fill="#382F27"></path>
                <path d="M52.5298805,19.4422311 C52.4900398,19.4023904 52.4900398,19.3426295 52.5298805,19.3027888 L53.187251,18.6653386 C53.2270916,18.625498 53.3067729,18.625498 53.3466135,18.6653386 C53.7450199,19.0039841 54.3824701,19.2430279 54.9601594,19.2430279 C55.6374502,19.2430279 55.9760956,18.9840637 55.9760956,18.6454183 C55.9760956,18.3466135 55.7768924,18.1474104 55.059761,18.0876494 L54.4621514,18.0278884 C53.3466135,17.9282869 52.7689243,17.3904382 52.7689243,16.5338645 C52.7689243,15.5577689 53.5258964,14.9203187 54.9003984,14.9203187 C55.7569721,14.9203187 56.4741036,15.1792829 56.9721116,15.5378486 C57.0318725,15.5776892 57.0318725,15.6374502 56.9920319,15.6772908 L56.4342629,16.2948207 C56.3944223,16.3545817 56.3346614,16.3545817 56.2749004,16.314741 C55.936255,16.0956175 55.3784861,15.8964143 54.8406375,15.8964143 C54.2828685,15.8964143 54.0039841,16.1155378 54.0039841,16.4342629 C54.0039841,16.7330677 54.2031873,16.9123506 54.9003984,16.9721116 L55.498008,17.0318725 C56.6533865,17.1314741 57.2111554,17.689243 57.2111554,18.5258964 C57.2111554,19.5418327 56.4143426,20.2589641 54.9003984,20.2589641 C53.7649402,20.2390438 52.9880478,19.8406375 52.5298805,19.4422311 L52.5298805,19.4422311 Z" id="Shape" fill="#382F27"></path>
                <path d="M58.0876494,18.8247012 C57.9681275,18.5059761 57.8884462,18.1075697 57.8884462,17.5697211 C57.8884462,17.0318725 57.9482072,16.6334661 58.0677291,16.314741 C58.3864542,15.4183267 59.2231076,14.9003984 60.3187251,14.9003984 C61.4541833,14.9003984 62.2709163,15.438247 62.5896414,16.314741 C62.7091633,16.6733068 62.7689243,17.0318725 62.7689243,17.8486056 C62.7689243,17.9083665 62.7290837,17.9482072 62.6494024,17.9482072 L59.2430279,17.9482072 C59.2031873,17.9482072 59.1832669,17.9681275 59.1832669,18.0079681 C59.1832669,18.1474104 59.2231076,18.2868526 59.2629482,18.4063745 C59.4422311,18.9043825 59.8804781,19.1832669 60.498008,19.1832669 C61.1155378,19.1832669 61.5139442,18.9641434 61.7928287,18.7051793 C61.8525896,18.6454183 61.9123506,18.6454183 61.9721116,18.685259 L62.6494024,19.2430279 C62.7091633,19.2828685 62.7091633,19.3426295 62.6693227,19.3824701 C62.1912351,19.8804781 61.4143426,20.2589641 60.3984064,20.2589641 C59.2231076,20.2390438 58.4063745,19.7211155 58.0876494,18.8247012 L58.0876494,18.8247012 Z M61.4143426,16.5737052 C61.2749004,16.1553785 60.8565737,15.9163347 60.3386454,15.9163347 C59.8207171,15.9163347 59.4023904,16.1553785 59.2430279,16.5737052 C59.2031873,16.6932271 59.1832669,16.8326693 59.1832669,17.0119522 C59.1832669,17.0517928 59.2031873,17.0717131 59.2430279,17.0717131 L61.4143426,17.0717131 C61.4541833,17.0717131 61.4741036,17.0517928 61.4741036,17.0119522 C61.4940239,16.8326693 61.4741036,16.6932271 61.4143426,16.5737052 L61.4143426,16.5737052 Z" id="Shape" fill="#382F27"></path>
                <path d="M63.7250996,20.1394422 C63.6653386,20.1394422 63.6055777,20.0996016 63.6055777,20.0398406 L63.6055777,15.1394422 C63.6055777,15.0796813 63.6454183,15.0398406 63.7250996,15.0398406 L64.7808765,15.0398406 C64.8406375,15.0398406 64.9003984,15.0796813 64.9003984,15.1394422 L64.9003984,15.5776892 L64.9203187,15.5776892 C65.1792829,15.1792829 65.6573705,14.9203187 66.3545817,14.9203187 C66.7928287,14.9203187 67.2310757,15.0796813 67.5099602,15.3386454 C67.5697211,15.3984064 67.5697211,15.438247 67.5298805,15.4780876 L66.9322709,16.1952191 C66.8924303,16.2549801 66.8326693,16.2549801 66.7729084,16.2151394 C66.5139442,16.0756972 66.2549801,15.9760956 65.9561753,15.9760956 C65.2390438,15.9760956 64.9203187,16.4541833 64.9203187,17.2709163 L64.9203187,20.0398406 C64.9203187,20.0996016 64.8804781,20.1394422 64.8007968,20.1394422 L63.7250996,20.1394422 L63.7250996,20.1394422 Z" id="Shape" fill="#382F27"></path>
                <path d="M67.7091633,19.3027888 C67.6693227,19.2629482 67.6494024,19.2031873 67.689243,19.1434263 L68.4063745,18.3864542 C68.4462151,18.3266932 68.5258964,18.3266932 68.5657371,18.3665339 C69.063745,18.7450199 69.8207171,19.123506 70.6772908,19.123506 C71.6135458,19.123506 72.1513944,18.685259 72.1513944,18.0876494 C72.1513944,17.5697211 71.812749,17.2310757 70.7370518,17.0916335 L70.3187251,17.0318725 C68.8247012,16.8326693 67.9681275,16.1752988 67.9681275,14.9800797 C67.9681275,13.685259 69.0039841,12.8087649 70.5976096,12.8087649 C71.5737052,12.8087649 72.4900398,13.0876494 73.1075697,13.5258964 C73.1673307,13.5657371 73.1673307,13.6055777 73.12749,13.6653386 L72.5697211,14.4422311 C72.5298805,14.501992 72.4701195,14.501992 72.4103586,14.4820717 C71.7729084,14.1035857 71.1952191,13.9243028 70.5378486,13.9243028 C69.7410359,13.9243028 69.3227092,14.3227092 69.3227092,14.8804781 C69.3227092,15.3784861 69.7011952,15.7171315 70.7569721,15.8565737 L71.1752988,15.9163347 C72.6693227,16.1155378 73.5059761,16.752988 73.5059761,18.0079681 C73.5059761,19.2828685 72.5099602,20.2390438 70.5776892,20.2390438 C69.4223108,20.2390438 68.3266932,19.8207171 67.7091633,19.3027888 L67.7091633,19.3027888 Z" id="Shape" fill="#382F27"></path>
                <path d="M75.876494,20.2191235 C74.7609562,20.2191235 74.3426295,19.7211155 74.3426295,18.7250996 L74.3426295,16.0358566 C74.3426295,15.9960159 74.3227092,15.9760956 74.2828685,15.9760956 L73.9043825,15.9760956 C73.8446215,15.9760956 73.7848606,15.936255 73.7848606,15.876494 L73.7848606,15.1593625 C73.7848606,15.0996016 73.8247012,15.059761 73.9043825,15.059761 L74.2629482,15.059761 C74.3027888,15.059761 74.3227092,15.0398406 74.3227092,15 L74.3227092,13.6055777 C74.3227092,13.5458167 74.3625498,13.5059761 74.4422311,13.5059761 L75.498008,13.5059761 C75.5577689,13.5059761 75.6175299,13.5458167 75.6175299,13.6055777 L75.6175299,15 C75.6175299,15.0398406 75.6374502,15.059761 75.6772908,15.059761 L76.4143426,15.059761 C76.4741036,15.059761 76.5338645,15.0996016 76.5338645,15.1593625 L76.5338645,15.876494 C76.5338645,15.936255 76.4940239,15.9760956 76.4143426,15.9760956 L75.6972112,15.9760956 C75.6573705,15.9760956 75.6374502,15.9960159 75.6374502,16.0358566 L75.6374502,18.685259 C75.6374502,19.0438247 75.7968127,19.1633466 76.1553785,19.1633466 L76.4342629,19.1633466 C76.4940239,19.1633466 76.5537849,19.2031873 76.5537849,19.2629482 L76.5537849,20.1195219 C76.5537849,20.1792829 76.5139442,20.2191235 76.4342629,20.2191235 L75.876494,20.2191235 L75.876494,20.2191235 Z" id="Shape" fill="#382F27"></path>
                <path d="M80.7171315,20.1394422 C80.6573705,20.1394422 80.5976096,20.0996016 80.5976096,20.0398406 L80.5976096,19.6613546 L80.5776892,19.6613546 C80.3187251,20.0199203 79.8007968,20.2589641 79.0239044,20.2589641 C78.0079681,20.2589641 77.1713147,19.7808765 77.1713147,18.7051793 C77.1713147,17.5896414 78.0079681,17.0916335 79.3824701,17.0916335 L80.498008,17.0916335 C80.5378486,17.0916335 80.5577689,17.0717131 80.5577689,17.0318725 L80.5577689,16.7928287 C80.5577689,16.2151394 80.2589641,15.9561753 79.3426295,15.9561753 C78.7250996,15.9561753 78.3466135,16.1155378 78.0876494,16.314741 C78.0278884,16.3545817 77.9681275,16.3545817 77.9282869,16.2948207 L77.5099602,15.5976096 C77.4701195,15.5378486 77.4900398,15.498008 77.5298805,15.4581673 C77.9681275,15.1593625 78.5856574,14.9601594 79.4820717,14.9601594 C81.1553785,14.9601594 81.7729084,15.498008 81.7729084,16.7330677 L81.7729084,20.059761 C81.7729084,20.1195219 81.7330677,20.1593625 81.6533865,20.1593625 L80.7171315,20.1593625 L80.7171315,20.1394422 Z M80.5976096,18.4262948 L80.5976096,18.0278884 C80.5976096,17.9880478 80.5776892,17.9681275 80.5378486,17.9681275 L79.6215139,17.9681275 C78.8047809,17.9681275 78.4262948,18.187251 78.4262948,18.6653386 C78.4262948,19.0836653 78.7649402,19.3027888 79.3824701,19.3027888 C80.1593625,19.2828685 80.5976096,19.0039841 80.5976096,18.4262948 L80.5976096,18.4262948 Z" id="Shape" fill="#382F27"></path>
                <path d="M82.8087649,18.8446215 C82.689243,18.5258964 82.6294821,18.12749 82.6294821,17.5896414 C82.6294821,17.0517928 82.689243,16.6533865 82.8087649,16.3346614 C83.12749,15.4183267 83.9840637,14.9203187 85.0796813,14.9203187 C85.8964143,14.9203187 86.5537849,15.2191235 86.9920319,15.7171315 C87.0318725,15.7569721 87.0318725,15.8167331 86.9721116,15.8565737 L86.2549801,16.4342629 C86.1952191,16.4741036 86.1354582,16.4741036 86.0956175,16.4143426 C85.8167331,16.1354582 85.5378486,15.9760956 85.0796813,15.9760956 C84.5816733,15.9760956 84.2031873,16.1952191 84.0438247,16.6334661 C83.9442231,16.8924303 83.9243028,17.1912351 83.9243028,17.5697211 C83.9243028,17.9482072 83.9442231,18.2669323 84.0438247,18.5258964 C84.2031873,18.9641434 84.5816733,19.1832669 85.0796813,19.1832669 C85.5378486,19.1832669 85.8167331,19.0239044 86.0956175,18.7450199 C86.1354582,18.685259 86.1952191,18.685259 86.2549801,18.7250996 L86.9721116,19.3027888 C87.0318725,19.3426295 87.0119522,19.4023904 86.9920319,19.4422311 C86.5537849,19.9203187 85.8964143,20.2191235 85.0796813,20.2191235 C83.9641434,20.2390438 83.12749,19.7410359 82.8087649,18.8446215 L82.8087649,18.8446215 Z" id="Shape" fill="#382F27"></path>
                <path d="M91.4541833,20.1394422 C91.374502,20.1394422 91.314741,20.0996016 91.2749004,20.0398406 L89.8804781,17.9083665 L89.1434263,18.7051793 L89.1434263,20.0398406 C89.1434263,20.0996016 89.1035857,20.1394422 89.0239044,20.1394422 L87.9681275,20.1394422 C87.9083665,20.1394422 87.8486056,20.0996016 87.8486056,20.0398406 L87.8486056,13.0478088 C87.8486056,12.9880478 87.8884462,12.9482072 87.9681275,12.9482072 L89.0239044,12.9482072 C89.0836653,12.9482072 89.1434263,12.9880478 89.1434263,13.0478088 L89.1434263,17.1912351 L91.0358566,15.1394422 C91.0956175,15.059761 91.1553785,15.0398406 91.2549801,15.0398406 L92.4302789,15.0398406 C92.4900398,15.0398406 92.5298805,15.0996016 92.4701195,15.1394422 L90.7171315,16.9920319 L92.7290837,20.0199203 C92.7689243,20.059761 92.749004,20.1195219 92.6693227,20.1195219 L91.4541833,20.1195219 L91.4541833,20.1394422 Z" id="Shape" fill="#382F27"></path>
            </g>
        </g>
    </g>
</svg>